<svg width="100" height="100" viewBox="0 0 100 100" fill="none" xmlns="http://www.w3.org/2000/svg">
<g clip-path="url(#clip0_2001_5)">
<path d="M37.625 0.64167C37.8667 2.01667 38.875 11.2583 39.3333 16.25C40.0917 24.625 40.75 35.7833 40.75 40.1833V41.1667H40.4833C39.8333 41.1667 34.9667 40.9917 33.2917 40.9167C23.6667 40.4667 13.2917 39.5833 2.84166 38.325C1.31666 38.1417 0.0499941 38 0.0416607 38.0167C0.0249941 38.0333 0.158327 38.3917 0.333327 38.825C1.02499 40.5 2.02499 41.8667 3.94999 43.7917C6.225 46.0583 8.42499 47.7333 12.075 49.975L12.3583 50.15L12.1583 50.275C12.05 50.3417 11.55 50.65 11.05 50.9583C6.86666 53.525 3.29166 56.6583 1.44166 59.4C0.783327 60.3833 -0.0250059 62.0917 0.108327 62.225C0.133327 62.25 1.29166 62.1333 2.68333 61.9667C13.325 60.7 23.1417 59.8583 32.25 59.4167C35.1833 59.275 38.3833 59.1667 39.6083 59.1667H40.75V60.225C40.75 61.4917 40.6333 64.7583 40.4583 68.2083C39.9833 77.725 39.025 88.4667 37.7167 98.9583C37.6583 99.4583 37.6167 99.8917 37.6333 99.9C37.675 99.9583 38.9917 99.3583 39.6083 99.0083C42.6583 97.2583 45.8833 93.7417 49 88.7917C49.375 88.1917 49.7083 87.675 49.7417 87.6417C49.7833 87.6 49.95 87.8167 50.125 88.125C50.5833 88.95 52.125 91.25 52.9167 92.2917C54.9833 95.025 57.1417 97.175 59.2 98.5833C59.5833 98.8417 61.175 99.6667 61.6417 99.8417L61.8583 99.9167L61.8083 99.275C61.7833 98.9167 61.6333 97.4833 61.4667 96.0833C60.2583 85.975 59.4 75.725 59 66.8333C58.9167 64.825 58.75 60.15 58.75 59.5167V59.1667H59.9C61.7917 59.1667 67.0167 59.3833 71.2083 59.625C79 60.0833 86.875 60.8 95.7 61.8417C97.6167 62.0667 99.2583 62.25 99.35 62.25C99.55 62.25 99.525 62.1417 99.0417 61.1083C98.275 59.4667 97.1417 57.9833 95.3167 56.2C93.5583 54.4917 91.2333 52.6833 88.9583 51.25C87.4333 50.2917 87.2417 50.1583 87.2833 50.1C87.3 50.0667 87.8583 49.7083 88.5167 49.3083C92.6583 46.7667 96.4667 43.3833 98.1917 40.7C98.8167 39.7333 99.6333 38 99.4667 38C99.45 38 98.1833 38.15 96.6583 38.3333C86.5917 39.525 78.2417 40.2667 69.5833 40.7417C66.15 40.9333 58.8333 41.1917 58.7667 41.125C58.725 41.0833 58.9 35.6167 59.0417 32.5417C59.4833 23.2917 60.3833 12.95 61.7 2.125C61.8167 1.20833 61.8917 0.450001 61.875 0.433334C61.8167 0.375001 60.5 0.941668 59.9 1.275C56.8083 3.04167 53.1583 7.08333 50.2583 11.9333C50.0167 12.3417 49.7917 12.6667 49.7583 12.6667C49.725 12.6667 49.55 12.4167 49.375 12.1C48.4667 10.5417 46.625 7.93333 45.375 6.41666C44.3417 5.16666 42.15 3.025 41.125 2.26667C40.2 1.58334 39.0083 0.908334 38.1667 0.591667C37.5833 0.366667 37.5833 0.375004 37.625 0.64167Z" fill="#C3012A"/>
<path d="M51.1667 21.05C52.8917 22.4833 54.3333 24.3167 55.3 26.2917C56.7083 29.1917 57 32.0833 56.2833 36.1667C55.825 38.8 55.2083 41.1167 53.4917 46.6833C51.6917 52.5333 51.1833 54.5833 50.9917 56.7083C50.8333 58.475 50.9833 59.8667 51.5083 61.6833L51.7667 62.575L53.0083 62.6C53.6917 62.6167 54.25 62.6083 54.25 62.5917C54.25 62.575 54.0417 62.1417 53.8 61.6333C53.275 60.5667 52.9167 59.5333 52.65 58.3083C52.4833 57.5667 52.4667 57.2083 52.4583 55.4583C52.4583 53.6917 52.4833 53.35 52.65 52.5083C52.9083 51.2167 53.4083 49.7333 53.9583 48.6167C56.6 43.2083 61.3167 41.0667 65.6833 43.2917C66.4583 43.6917 67.0083 44.1083 67.675 44.8C68.3667 45.525 68.675 45.9833 69.1333 46.95C69.6917 48.1333 69.875 48.9667 69.875 50.4167C69.875 51.875 69.75 52.4083 69.15 53.6583C68.7833 54.4167 68.6417 54.625 67.975 55.2917C67.175 56.0917 66.4417 56.5833 65.4917 56.9583C64.575 57.325 63.3583 57.5833 62.3083 57.6417L61.3167 57.6917L61.9083 56.9583C63.6083 54.8333 63.875 52.6417 62.625 51.0667C61.6917 49.8917 60.0167 49.2583 58.475 49.4833C55.7583 49.8833 54.175 52.5167 54.5083 56.0667C54.7 58.0833 55.1083 59.025 56.975 61.75C57.9167 63.125 58.1083 63.875 57.7 64.5833C57.3417 65.1917 56.7333 65.3333 54.5167 65.3333H52.9833L53.3333 65.9833C53.7667 66.7667 54.6417 68.1167 55.15 68.775L55.5167 69.2583L54.6917 70.1083C54.2417 70.575 52.9917 71.875 51.9167 72.9917L49.9583 75.0167L48.9167 73.925C48.3417 73.325 47.0917 72.0333 46.1417 71.05L44.4083 69.2667L45.05 68.4C45.4 67.9333 45.9583 67.05 46.3 66.4583L46.925 65.375L45.0917 65.325C44.0833 65.2917 43.1333 65.225 42.975 65.175C42.5917 65.0417 42.1083 64.5083 42.0333 64.1333C41.9083 63.4583 42.2 62.7667 43.1917 61.375C44.1 60.1 44.3583 59.6667 44.7167 58.85C45.6833 56.6083 45.7167 53.8917 44.7917 51.9583C44.2167 50.7583 43.0917 49.8417 41.825 49.5417C39.8667 49.0833 37.675 50.075 36.8583 51.7917C36.1083 53.375 36.5583 55.175 38.1917 57.1833L38.5833 57.6667H38.025C37.325 57.6667 36.075 57.475 35.2917 57.2583C32.7083 56.5333 30.85 54.6917 30.2 52.2083C29.975 51.35 29.9917 49.3667 30.2333 48.4833C30.6333 47.0083 31.25 45.875 32.1917 44.8667C33.6 43.3667 35.3417 42.5583 37.4167 42.4417C40.8833 42.2583 44.0917 44.6333 46.0667 48.8333C47.6917 52.2917 47.975 56.4833 46.825 59.9583C46.625 60.5583 46.225 61.4667 45.6833 62.5167C45.6667 62.5583 46.2083 62.5833 46.9 62.5833H48.1417L48.3667 61.85C48.8417 60.2917 48.95 59.5833 48.95 57.9167C48.9417 55.2917 48.5917 53.7333 46.4583 46.7917C44.0917 39.0917 43.4083 36.1083 43.275 32.9167C43.175 30.4167 43.5667 28.5 44.625 26.2917C45.6583 24.1417 47.4 22.0417 49.4167 20.5083L49.9583 20.1L50.25 20.3167C50.4083 20.4333 50.825 20.7667 51.1667 21.05Z" fill="#FDE809"/>
</g>
<defs>
<clipPath id="clip0_2001_5">
<rect width="100" height="100" fill="white"/>
</clipPath>
</defs>
</svg>
